<?xml version="1.0" encoding="UTF-8" standalone="no" ?>
<!DOCTYPE svg PUBLIC "-//W3C//DTD SVG 1.1//EN" "http://www.w3.org/Graphics/SVG/1.1/DTD/svg11.dtd">
<svg xmlns="http://www.w3.org/2000/svg" xmlns:xlink="http://www.w3.org/1999/xlink" version="1.1" width="1080" height="1080" viewBox="0 0 1080 1080" xml:space="preserve">
<desc>Created with Fabric.js 5.2.4</desc>
<defs>
</defs>
<g transform="matrix(1 0 0 1 540 540)" id="bca22152-dd97-43bf-befb-4619e9ecbd7b"  >
</g>
<g transform="matrix(1 0 0 1 540 540)" id="02dcf17c-fb1e-49de-b3a9-a6f8611bca9a"  >
<rect style="stroke: none; stroke-width: 1; stroke-dasharray: none; stroke-linecap: butt; stroke-dashoffset: 0; stroke-linejoin: miter; stroke-miterlimit: 4; fill: rgb(255,255,255); fill-rule: nonzero; opacity: 1; visibility: hidden;" vector-effect="non-scaling-stroke"  x="-540" y="-540" rx="0" ry="0" width="1080" height="1080" />
</g>
<g transform="matrix(1 0 0 1 540 540)"  >
<g style="" vector-effect="non-scaling-stroke"   >
		<g transform="matrix(0.13 0 0 -0.13 -8.32 -8.28)"  >
<path style="stroke: none; stroke-width: 1; stroke-dasharray: none; stroke-linecap: butt; stroke-dashoffset: 0; stroke-linejoin: miter; stroke-miterlimit: 4; fill: rgb(247,23,23); fill-rule: nonzero; opacity: 1;" vector-effect="non-scaling-stroke"  transform=" translate(-2512.15, -2483.14)" d="M 1798 4950 C 1775 4938 1752 4914 1740 4891 C 1703 4817 1697 4729 1704 4330 C 1708 4113 1707 3949 1702 3942 C 1689 3923 1673 3932 1288 4166 C 1110 4274 947 4371 925 4381 C 903 4391 866 4400 843 4400 C 807 4400 793 4394 759 4363 C 704 4313 672 4264 457 3903 C 356 3734 227 3519 170 3425 C 49 3227 21 3164 20 3095 C 20 3048 23 3044 78 2990 C 115 2955 190 2904 290 2846 C 479 2738 820 2532 839 2514 C 850 2504 844 2496 799 2467 C 769 2449 709 2414 665 2390 C 321 2205 100 2079 61 2044 C 15 2003 15 2002 15 1938 C 15 1856 42 1800 318 1308 C 433 1103 553 888 584 831 C 657 699 684 664 734 638 C 816 596 861 614 1235 832 C 1513 995 1584 1034 1631 1054 L 1666 1069 L 1662 622 C 1659 294 1661 163 1670 131 C 1684 77 1724 35 1776 21 C 1801 14 2048 8 2490 4 L 3165 -2 L 3210 22 C 3234 34 3263 59 3273 76 C 3300 125 3309 273 3310 678 C 3310 947 3313 1040 3322 1040 C 3342 1040 3487 957 3735 804 C 4055 607 4107 580 4173 580 C 4222 580 4226 582 4280 638 C 4319 678 4384 777 4504 980 C 4597 1137 4740 1377 4822 1514 C 5017 1842 5033 1898 4951 1978 C 4931 1998 4822 2069 4709 2134 C 4424 2300 4208 2428 4186 2445 C 4173 2455 4170 2464 4176 2469 C 4181 2474 4354 2576 4560 2694 C 4818 2843 4947 2923 4974 2951 C 5012 2991 5012 2993 5007 3051 C 5001 3121 4977 3168 4632 3785 C 4333 4319 4350 4291 4305 4326 C 4275 4349 4258 4354 4216 4354 C 4153 4354 4089 4322 3750 4125 C 3484 3970 3361 3905 3352 3915 C 3349 3918 3351 4088 3358 4293 C 3372 4772 3363 4865 3295 4918 C 3238 4963 3228 4963 2515 4967 C 1850 4970 1834 4969 1798 4950 z M 2847 4864 L 3199 4857 L 3222 4833 L 3245 4808 L 3244 4269 C 3243 3973 3243 3730 3244 3730 C 3251 3730 3776 4019 3888 4084 C 4067 4188 4158 4231 4210 4233 L 4253 4235 L 4305 4150 C 4371 4042 4800 3273 4859 3158 C 4908 3060 4909 3035 4860 2992 C 4844 2978 4733 2913 4613 2847 C 4331 2693 3979 2492 3962 2476 C 3951 2465 3962 2455 4027 2420 C 4142 2357 4702 2019 4795 1957 C 4872 1906 4875 1902 4874 1866 C 4872 1821 4797 1664 4705 1515 C 4573 1301 4473 1133 4375 960 C 4316 858 4256 765 4228 736 C 4185 692 4178 688 4148 694 C 4117 700 4029 750 3445 1093 C 3319 1168 3214 1225 3212 1221 C 3211 1217 3206 979 3202 692 C 3195 185 3194 171 3174 143 C 3159 124 3140 113 3109 107 C 3042 94 1883 106 1837 120 C 1765 142 1764 144 1770 500 C 1777 943 1776 1227 1768 1235 C 1764 1239 1560 1131 1315 995 C 1028 836 855 746 831 743 C 760 733 740 757 615 990 C 572 1070 468 1255 384 1402 C 200 1722 120 1879 120 1919 C 120 1963 153 1993 275 2058 C 336 2090 448 2153 525 2197 C 602 2241 742 2318 835 2368 C 929 2419 1018 2471 1034 2484 L 1063 2507 L 1004 2547 C 931 2596 661 2758 396 2910 C 158 3048 140 3062 140 3120 C 140 3174 165 3223 333 3497 C 406 3617 511 3792 565 3885 C 801 4295 817 4312 918 4261 C 949 4245 1642 3837 1750 3771 C 1792 3746 1796 3745 1806 3768 C 1810 3777 1816 4017 1819 4301 C 1825 4792 1826 4819 1844 4839 C 1884 4884 1836 4882 2847 4864 z" stroke-linecap="round" />
</g>
		<g transform="matrix(0.13 0 0 -0.13 -7.69 -8.37)"  >
<path style="stroke: none; stroke-width: 1; stroke-dasharray: none; stroke-linecap: butt; stroke-dashoffset: 0; stroke-linejoin: miter; stroke-miterlimit: 4; fill: rgb(247,23,23); fill-rule: nonzero; opacity: 1;" vector-effect="non-scaling-stroke"  transform=" translate(-2511.09, -2489.18)" d="M 1937 4754 C 1935 4749 1929 4476 1925 4148 C 1921 3819 1916 3550 1913 3550 C 1900 3550 1780 3619 1405 3845 C 1174 3983 959 4111 928 4129 L 871 4161 L 822 4088 C 729 3950 260 3154 260 3135 C 260 3131 268 3121 277 3113 C 299 3097 545 2949 870 2760 C 1159 2591 1280 2514 1280 2500 C 1280 2495 1247 2472 1208 2449 C 1081 2377 571 2091 415 2004 C 333 1958 259 1917 251 1912 C 239 1905 253 1872 325 1739 C 521 1374 817 860 831 860 C 835 860 1040 972 1287 1108 C 1533 1245 1770 1376 1813 1399 L 1892 1442 L 1885 838 L 1877 233 L 2060 227 C 2161 223 2431 220 2660 220 L 3077 220 L 3083 377 C 3087 464 3091 657 3091 805 C 3092 954 3095 1155 3099 1253 L 3105 1430 L 3613 1129 C 3893 964 4127 827 4133 824 C 4147 819 4248 974 4483 1366 C 4712 1746 4768 1851 4749 1862 C 4741 1867 4647 1921 4540 1982 C 4337 2097 3826 2402 3764 2444 L 3729 2468 L 3762 2493 C 3789 2513 4241 2769 4632 2985 C 4679 3011 4731 3043 4747 3056 L 4775 3079 L 4738 3152 C 4717 3192 4608 3387 4494 3585 C 4381 3783 4269 3984 4244 4032 L 4200 4119 L 4153 4098 C 4084 4068 3940 3988 3650 3820 C 3339 3640 3178 3552 3145 3544 L 3120 3538 L 3125 3701 C 3128 3791 3132 4061 3135 4301 L 3140 4738 L 3118 4745 C 3084 4755 1944 4764 1937 4754 z M 2599 4106 C 2646 4081 2664 4043 2664 3966 L 2665 3897 L 2545 3864 C 2374 3817 2386 3812 2392 3924 C 2396 3992 2403 4028 2416 4052 C 2451 4112 2538 4137 2599 4106 z M 2877 3805 C 2933 3788 2980 3748 2980 3716 C 2980 3660 2899 3587 2805 3557 C 2778 3548 2706 3532 2647 3520 C 2316 3456 2204 3330 2324 3154 C 2348 3118 2350 3107 2350 3013 C 2350 2956 2348 2910 2345 2910 C 2322 2910 2245 2963 2195 3014 C 1913 3296 2099 3705 2555 3805 C 2640 3823 2814 3824 2877 3805 z M 2650 3388 C 2650 3359 2643 3202 2635 3040 C 2627 2878 2620 2724 2620 2697 L 2620 2650 L 2529 2590 C 2479 2557 2435 2530 2430 2530 C 2419 2530 2410 2775 2410 3085 L 2410 3367 L 2458 3389 C 2510 3413 2593 3438 2628 3439 C 2648 3440 2650 3436 2650 3388 z M 2751 2949 C 2866 2875 2922 2766 2899 2660 C 2874 2544 2770 2437 2551 2302 C 2483 2260 2409 2209 2387 2188 C 2342 2145 2344 2182 2371 1912 C 2377 1845 2380 1787 2377 1783 C 2366 1773 2282 1829 2246 1872 C 2184 1944 2165 1994 2165 2085 C 2166 2153 2170 2173 2194 2220 C 2232 2292 2325 2383 2435 2455 C 2485 2487 2548 2528 2575 2546 C 2603 2564 2640 2593 2658 2611 L 2692 2644 L 2685 2757 C 2678 2864 2685 2980 2697 2980 C 2701 2980 2725 2966 2751 2949 z M 2606 2213 C 2603 2192 2593 2041 2584 1877 L 2566 1579 L 2517 1539 C 2451 1487 2440 1488 2440 1548 C 2440 1574 2435 1710 2429 1851 C 2416 2155 2414 2148 2517 2209 C 2603 2261 2613 2261 2606 2213 z M 2752 1823 C 2902 1668 2793 1462 2499 1343 C 2425 1313 2340 1298 2340 1315 C 2340 1330 2389 1375 2470 1435 C 2624 1549 2633 1566 2638 1757 L 2642 1899 L 2679 1880 C 2699 1870 2732 1844 2752 1823 z M 2550 1268 C 2550 1213 2509 887 2501 872 C 2493 857 2490 859 2480 885 C 2458 943 2449 1019 2452 1141 L 2455 1263 L 2490 1276 C 2540 1294 2550 1293 2550 1268 z" stroke-linecap="round" />
</g>
		<g transform="matrix(0.13 0 0 -0.13 33.42 -170.97)"  >
<path style="stroke: none; stroke-width: 1; stroke-dasharray: none; stroke-linecap: butt; stroke-dashoffset: 0; stroke-linejoin: miter; stroke-miterlimit: 4; fill: rgb(247,23,23); fill-rule: nonzero; opacity: 1;" vector-effect="non-scaling-stroke"  transform=" translate(-2764.12, -3765.05)" d="M 2730 3767 C 2705 3756 2705 3756 2739 3752 C 2781 3748 2823 3757 2815 3770 C 2807 3783 2761 3782 2730 3767 z" stroke-linecap="round" />
</g>
</g>
</g>
<g transform="matrix(NaN NaN NaN NaN 0 0)"  >
<g style=""   >
</g>
</g>
</svg>